<svg xmlns="http://www.w3.org/2000/svg" width="563.6" height="131.1" viewBox="0 0 563.6 131.1"><path fill="#fff" d="M220.1 70.9c0 4.8-1 8.7-3.1 11.5-2 2.8-5.2 4.2-9.6 4.2-3.8 0-6.7-1.1-8.7-3.4-1.9-2.3-2.9-5.4-2.9-9.5V40.9h-14.5v35.8c0 3.9.5 7.3 1.6 10.2 1 2.9 2.5 5.3 4.3 7.2 1.8 1.9 4 3.3 6.5 4.3 2.5.9 5.1 1.4 8 1.4 8.4 0 13.8-3.3 16.4-9.9h2.1v8.3h14.5V40.9h-14.5v30zM297.8 44.7c-1.8-1.8-4-3.2-6.4-4.1-2.4-.9-5-1.3-7.8-1.3-3.9 0-7.3.9-10.3 2.7-2.9 1.8-5 4.3-6.3 7.5h-2V41h-14.5v57.2H265V68.3c0-4.8 1.1-8.7 3.2-11.6 2.1-2.9 5.3-4.3 9.6-4.3 3.7 0 6.5 1.2 8.5 3.5s2.9 5.6 2.9 9.6V98h14.5V61.9c0-3.9-.5-7.3-1.6-10.2-1-2.8-2.4-5.2-4.3-7zM351.9 40.9h-32.5v13.8h18v29.6H318v13.8h50.5V84.3h-16.6zM336.8 31.7c1 1 2.2 1.7 3.5 2.3 1.3.6 2.7.9 4.3.9 1.5 0 2.9-.3 4.2-.9 1.3-.6 2.5-1.3 3.5-2.3 1-1 1.8-2.1 2.4-3.5.6-1.3.9-2.8.9-4.3s-.3-3-.9-4.3c-.6-1.3-1.4-2.5-2.4-3.5s-2.2-1.7-3.5-2.3c-1.3-.6-2.8-.9-4.2-.9-1.5 0-3 .3-4.3.9-1.3.6-2.5 1.3-3.5 2.3-1 1-1.8 2.1-2.4 3.5-.6 1.3-.9 2.8-.9 4.3s.3 3 .9 4.3c.6 1.4 1.4 2.6 2.4 3.5zM424.9 54.7V40.9h-20.6V17.4h-14.5v23.5h-17v13.8h17v34.4c0 2.6.8 4.8 2.5 6.5 1.7 1.7 3.8 2.5 6.4 2.5h24.2V84.3h-15.5c-2.1 0-3.1-1.2-3.1-3.5V54.7h20.6z"/><ellipse transform="matrix(.987 -.16 .16 .987 -4.502 8.393)" fill="#4B48D8" cx="49.8" cy="32.1" rx="32.1" ry="32.1"/><ellipse transform="matrix(.949 -.316 .316 .949 -3.216 35.419)" fill="#4B48D8" cx="107.5" cy="27.6" rx="16.1" ry="16.1"/><ellipse transform="matrix(.973 -.23 .23 .973 -16.858 5.721)" fill="#4B48D8" cx="16.1" cy="75.3" rx="16.1" ry="16.1"/><ellipse transform="matrix(.993 -.122 .122 .993 -9.727 13.289)" fill="#4B48D8" cx="103.5" cy="86" rx="33.5" ry="33.5"/><ellipse transform="matrix(.973 -.23 .23 .973 -24.252 13.591)" fill="#4B48D8" cx="46.2" cy="110.9" rx="20.2" ry="20.2"/><path fill="#4B48D8" d="M488.9 23.5c-2.4-2.3-5.4-4.2-9.1-5.6-3.6-1.4-7.8-2.1-12.7-2.1-4.5 0-8.6.7-12.2 2.2-3.6 1.5-6.7 3.5-9.2 6.1-2.5 2.6-4.4 5.6-5.8 9-1.3 3.4-2 7-2 10.8v6.5h15.2v-5.1c0-4.7 1.3-8.4 3.9-11 2.6-2.7 6.1-4 10.5-4 4.2 0 7.4 1.1 9.7 3.2 2.3 2.2 3.5 4.8 3.5 8.1 0 1.7-.2 3.2-.6 4.6-.4 1.3-1.2 2.6-2.4 3.7s-2.7 2.1-4.7 3c-2 .9-4.5 1.7-7.6 2.4-4.2.9-7.9 2.1-11.2 3.4-3.3 1.3-6.1 3.1-8.5 5.1-2.3 2.1-4.2 4.6-5.4 7.6-1.3 3-1.9 6.6-1.9 10.8v15.9h56.8V83.6h-41.5v-1.4c0-1.6.2-3.1.7-4.3.5-1.3 1.4-2.4 2.7-3.5 1.3-1.1 3.1-2.1 5.5-2.9 2.3-.9 5.3-1.7 8.9-2.6 8.6-2 14.8-5.2 18.6-9.7 3.8-4.5 5.7-10.1 5.7-16.8V41c0-3.2-.6-6.4-1.8-9.4-.9-3.1-2.7-5.8-5.1-8.1zM543.5 83.6V17.4h-30.6v14.5h15.4v51.7h-22.9v14.5h58.2V83.6z"/></svg>